<svg version="1.1" xmlns="http://www.w3.org/2000/svg" width="624.7200000000003pt" height="1132pt" viewBox="0 0 624.7200000000003 1132"><style type="text/css">.dashed {stroke-dasharray: 5,5} .dotted {stroke-dasharray: 1,5} .overlay {fill: none; pointer-events: all}</style><g><g transform="translate(4, 1128)"><polygon stroke="#fffffe" stroke-opacity="0" fill="#ffffff" points="-4,4 -4,-1128 620.7200000000003,-1128 620.7200000000003,4"></polygon><g class="node"><title>db</title><text x="95.63" y="-1086.6" text-anchor="middle" font-family="'Times-Roman',serif" font-size="14" fill="#000000">Do you need</text><path stroke="#000000" fill="none" d="M 95.63,-1124.1 L 8.06,-1082.4,95.63,-1040.7,183.2,-1082.4 Z"></path><text x="95.63" y="-1069.8" text-anchor="middle" font-family="'Times-Roman',serif" font-size="14" fill="#000000"> a database?</text></g><g class="node"><title>wracc</title><path stroke="#000000" fill="none" d="M 209.63,-988.1 L 76.10999999999999,-946.4,209.63,-904.7,343.15,-946.4 Z"></path><text x="209.63" y="-950.6" text-anchor="middle" font-family="'Times-Roman',serif" font-size="14" fill="#000000">Does it require</text><text x="209.63" y="-933.8" text-anchor="middle" font-family="'Times-Roman',serif" font-size="14" fill="#000000"> shared write access?</text></g><g class="node"><title>nobc</title><text x="93.62999999999988" y="-398.2" text-anchor="middle" font-family="'Times-Roman',serif" font-size="14" fill="#000000">Don't use blockchain</text><path stroke="#000000" fill="none" d="M 93.62999999999988,-402.4 m -93.76,0 a 93.76,18 0 1,0 187.52,0 a 93.76,18 0 1,0 -187.52,0"></path></g><g class="node"><title>trustw</title><path stroke="#000000" fill="none" d="M 237.63,-852.1 L 121.50999999999999,-810.4,237.63,-768.7,353.76,-810.4 Z"></path><text x="237.63" y="-814.6" text-anchor="middle" font-family="'Times-Roman',serif" font-size="14" fill="#000000">Are writers</text><text x="237.63" y="-797.8" text-anchor="middle" font-family="'Times-Roman',serif" font-size="14" fill="#000000">known &amp; trusted?</text></g><g class="node"><title>uninter</title><path stroke="#000000" fill="none" d="M 237.63,-716.1 L 125.59000000000003,-674.4,237.63,-632.7,349.68000000000006,-674.4 Z"></path><text x="237.63" y="-678.6" text-anchor="middle" font-family="'Times-Roman',serif" font-size="14" fill="#000000">Are writers' </text><text x="237.63" y="-661.8" text-anchor="middle" font-family="'Times-Roman',serif" font-size="14" fill="#000000">interests unified?</text></g><g class="node"><title>thirdparty</title><text x="333.63" y="-542.6" text-anchor="middle" font-family="'Times-Roman',serif" font-size="14" fill="#000000">Do you want/need to</text><text x="333.63" y="-525.8" text-anchor="middle" font-family="'Times-Roman',serif" font-size="14" fill="#000000"> use trusted 3rd party?</text><path stroke="#000000" fill="none" d="M 333.63,-580.1 L 193.33000000000004,-538.4,333.63,-496.7,473.93000000000006,-538.4 Z"></path></g><g class="node"><title>control</title><text x="342.6299999999999" y="-406.6" text-anchor="middle" font-family="'Times-Roman',serif" font-size="14" fill="#000000">Do you need</text><path stroke="#000000" fill="none" d="M 342.6299999999999,-444.1 L 205.79999999999995,-402.4,342.6299999999999,-360.7,479.46000000000004,-402.4 Z"></path><text x="342.6299999999999" y="-389.8" text-anchor="middle" font-family="'Times-Roman',serif" font-size="14" fill="#000000">control functionality?</text></g><g class="node"><title>consensus</title><path stroke="#000000" fill="none" d="M 244.6300000000001,-172.1 L 99.2199999999998,-130.4,244.6300000000001,-88.7,390.03999999999996,-130.4 Z"></path><text x="244.6300000000001" y="-134.6" text-anchor="middle" font-family="'Times-Roman',serif" font-size="14" fill="#000000">Where is </text><text x="244.6300000000001" y="-117.8" text-anchor="middle" font-family="'Times-Roman',serif" font-size="14" fill="#000000">consensus determined?</text></g><g class="node"><title>private</title><path stroke="#000000" fill="none" d="M 439.6300000000001,-308.1 L 280.76,-266.4,439.6300000000001,-224.7,598.5,-266.4 Z"></path><text x="439.6300000000001" y="-270.6" text-anchor="middle" font-family="'Times-Roman',serif" font-size="14" fill="#000000">Do you want transactions</text><text x="439.6300000000001" y="-253.8" text-anchor="middle" font-family="'Times-Roman',serif" font-size="14" fill="#000000">public or private?</text></g><g class="node"><title>hybchain</title><path stroke="#000000" fill="none" d="M 129.6300000000001,-18 m -105.32,0 a 105.32,18 0 1,0 210.64,0 a 105.32,18 0 1,0 -210.64,0"></path><text x="129.6300000000001" y="-13.800000000000011" text-anchor="middle" font-family="'Times-Roman',serif" font-size="14" fill="#000000">Use a hybrid blockchain</text></g><g class="node"><title>prichain</title><path stroke="#000000" fill="none" d="M 359.6300000000001,-18 m -106.52,0 a 106.52,18 0 1,0 213.04,0 a 106.52,18 0 1,0 -213.04,0"></path><text x="359.6300000000001" y="-13.799999999999997" text-anchor="middle" font-family="'Times-Roman',serif" font-size="14" fill="#000000">Use a private blockchain</text></g><g class="node"><title>pubchain</title><path stroke="#000000" fill="none" d="M 512.6300000000001,-130.4 m -104.18,0 a 104.18,18 0 1,0 208.36,0 a 104.18,18 0 1,0 -208.36,0"></path><text x="512.6300000000001" y="-126.2" text-anchor="middle" font-family="'Times-Roman',serif" font-size="14" fill="#000000">Use a public blockchain</text></g><g class="relation" style="opacity: 1;"><title>db-&gt;wracc</title><path stroke="#000000" fill="none" d="M 120.37,-1052.32 C 136.51,-1033.35,157.8,-1008.32,175.54,-987.47"></path><path class="solid" stroke="#000000" fill="#000000" d="M 178.33,-989.59 L 182.15,-979.71,173,-985.06 Z"></path><text x="168.96" y="-1010.2" text-anchor="middle" font-family="'Times-Roman',serif" font-size="14" fill="#000000">yes</text></g><g class="relation" style="opacity: 1;"><title>db-&gt;nobc</title><path stroke="#000000" fill="none" d="M 77.07,-1049.23 C 63.56999999999999,-1022.78,47.629999999999995,-983.85,47.629999999999995,-947.4,47.629999999999995,-947.4,47.629999999999995,-947.4,47.63000000000011,-537.4,47.63000000000011,-498.19,65.47000000000003,-455.85,78.93000000000006,-429.48"></path><path class="solid" stroke="#000000" fill="#000000" d="M 82.08999999999992,-431.01 L 83.65000000000009,-420.53,75.8900000000001,-427.74 Z"></path><text x="54.629999999999995" y="-738.2" text-anchor="middle" font-family="'Times-Roman',serif" font-size="14" fill="#000000">no</text></g><g class="relation" style="opacity: 1;"><title>wracc-&gt;trustw</title><path stroke="#000000" fill="none" d="M 217.66,-907 C 220.76,-892.16,224.34000000000003,-875,227.61,-859.36"></path><path class="solid" stroke="#000000" fill="#000000" d="M 231.08000000000004,-859.85 L 229.7,-849.34,224.23000000000002,-858.41 Z"></path><text x="234.96000000000004" y="-874.2" text-anchor="middle" font-family="'Times-Roman',serif" font-size="14" fill="#000000">yes</text></g><g class="relation" style="opacity: 1;"><title>wracc-&gt;nobc</title><path stroke="#000000" fill="none" d="M 165.12,-918.29 C 132.39999999999998,-894.61,93.63,-856.94,93.63,-811.4,93.63,-811.4,93.63,-811.4,93.62999999999988,-537.4,93.63000000000011,-500.6,93.63000000000011,-458.11,93.63000000000011,-431.01"></path><path class="solid" stroke="#000000" fill="#000000" d="M 97.13000000000011,-430.75 L 93.62999999999988,-420.75,90.12999999999988,-430.75 Z"></path><text x="100.63" y="-670.2" text-anchor="middle" font-family="'Times-Roman',serif" font-size="14" fill="#000000">no</text></g><g class="relation" style="opacity: 1;"><title>trustw-&gt;uninter</title><path stroke="#000000" fill="none" d="M 237.63,-768.47 C 237.63,-755.22,237.63,-740.36,237.63,-726.47"></path><path class="solid" stroke="#000000" fill="#000000" d="M 241.13,-726.08 L 237.63,-716.08,234.13,-726.08 Z"></path><text x="246.96000000000004" y="-738.2" text-anchor="middle" font-family="'Times-Roman',serif" font-size="14" fill="#000000">yes</text></g><g class="relation" style="opacity: 1;"><title>trustw-&gt;thirdparty</title><path stroke="#000000" fill="none" d="M 286.28,-785.93 C 312.93,-770.2,343.54,-746.72,358.63,-716,378.88,-674.8,367.28999999999996,-622.09,353.95000000000005,-585.02"></path><path class="solid" stroke="#000000" fill="#000000" d="M 357.15,-583.6 L 350.35,-575.48,350.6,-586.07 Z"></path><text x="375.63" y="-670.2" text-anchor="middle" font-family="'Times-Roman',serif" font-size="14" fill="#000000">no</text></g><g class="relation" style="opacity: 1;"><title>uninter-&gt;nobc</title><path stroke="#000000" fill="none" d="M 210.53999999999996,-642.46 C 196.09000000000003,-624.94,178.70000000000005,-602.15,165.97000000000003,-580,137.12,-529.8,113.95,-465.85,102.15,-430.31"></path><path class="solid" stroke="#000000" fill="#000000" d="M 105.43000000000006,-429.07 L 98.99000000000001,-420.65,98.76999999999998,-431.24 Z"></path><text x="175.96000000000004" y="-534.2" text-anchor="middle" font-family="'Times-Roman',serif" font-size="14" fill="#000000">yes</text></g><g class="relation" style="opacity: 1;"><title>uninter-&gt;thirdparty</title><path stroke="#000000" fill="none" d="M 260.87,-640.96 C 273.63,-623.15,289.61,-600.85,303.3399999999999,-581.69"></path><path class="solid" stroke="#000000" fill="#000000" d="M 306.28999999999996,-583.58 L 309.27,-573.41,300.6,-579.5 Z"></path><text x="298.63" y="-602.2" text-anchor="middle" font-family="'Times-Roman',serif" font-size="14" fill="#000000">no</text></g><g class="relation" style="opacity: 1;"><title>thirdparty-&gt;nobc</title><path stroke="#000000" fill="none" d="M 285.93000000000006,-510.77 C 240.58999999999992,-485.45,173.29999999999995,-447.88,131.51999999999998,-424.55"></path><path class="solid" stroke="#000000" fill="#000000" d="M 133.19000000000005,-421.48 L 122.75999999999999,-419.66,129.77999999999997,-427.59 Z"></path><text x="237.96000000000004" y="-466.2" text-anchor="middle" font-family="'Times-Roman',serif" font-size="14" fill="#000000">yes</text></g><g class="relation" style="opacity: 1;"><title>thirdparty-&gt;control</title><path stroke="#000000" fill="none" d="M 336.3299999999999,-497.2 C 337.25,-483.55,338.28999999999996,-468.12,339.25,-453.79"></path><path class="solid" stroke="#000000" fill="#000000" d="M 342.76,-453.79 L 339.93000000000006,-443.58,335.77,-453.32 Z"></path><text x="345.6300000000001" y="-466.2" text-anchor="middle" font-family="'Times-Roman',serif" font-size="14" fill="#000000">no</text></g><g class="relation" style="opacity: 1;"><title>control-&gt;consensus</title><path stroke="#000000" fill="none" d="M 303.55999999999995,-372.13 C 284.68000000000006,-355.59,263.80999999999995,-333.19,252.97000000000003,-308,235.7,-267.84,235.07,-217.69,237.91,-181.11"></path><path class="solid" stroke="#000000" fill="#000000" d="M 241.43000000000006,-180.97 L 238.82999999999993,-170.7,234.46000000000004,-180.35 Z"></path><text x="262.96000000000004" y="-262.2" text-anchor="middle" font-family="'Times-Roman',serif" font-size="14" fill="#000000">yes</text></g><g class="relation" style="opacity: 1;"><title>control-&gt;private</title><path stroke="#000000" fill="none" d="M 366.8600000000001,-367.93 C 379.56999999999994,-350.37,395.27,-328.68,408.8399999999999,-309.94"></path><path class="solid" stroke="#000000" fill="#000000" d="M 411.6700000000001,-311.99 L 414.70000000000005,-301.84,406,-307.89 Z"></path><text x="403.6299999999999" y="-330.2" text-anchor="middle" font-family="'Times-Roman',serif" font-size="14" fill="#000000">no</text></g><g class="relation" style="opacity: 1;"><title>consensus-&gt;hybchain</title><path stroke="#000000" fill="none" d="M 211.99000000000024,-98.06 C 193.78999999999996,-80.59,171.48000000000002,-59.17,154.67000000000007,-43.03999999999999"></path><path class="solid" stroke="#000000" fill="#000000" d="M 157.00999999999976,-40.43000000000001 L 147.3699999999999,-36.03,152.15999999999985,-45.47999999999999 Z"></path><text x="207.26000000000022" y="-58.2" text-anchor="middle" font-family="'Times-Roman',serif" font-size="14" fill="#000000">inter firm</text></g><g class="relation" style="opacity: 1;"><title>consensus-&gt;prichain</title><path stroke="#000000" fill="none" d="M 277.2800000000002,-98.06 C 295.48,-80.59,317.78999999999996,-59.17,334.59000000000015,-43.04"></path><path class="solid" stroke="#000000" fill="#000000" d="M 337.0999999999999,-45.48 L 341.8899999999999,-36.03,332.25,-40.43 Z"></path><text x="349.2600000000002" y="-58.2" text-anchor="middle" font-family="'Times-Roman',serif" font-size="14" fill="#000000">intra firm</text></g><g class="relation" style="opacity: 1;"><title>private-&gt;consensus</title><path stroke="#000000" fill="none" d="M 396.3600000000001,-235.66 C 366.4100000000001,-215.08,326.45000000000005,-187.62,295.05999999999995,-166.05"></path><path class="solid" stroke="#000000" fill="#000000" d="M 296.6700000000001,-162.92 L 286.45000000000005,-160.14,292.71000000000004,-168.68 Z"></path><text x="373.06999999999994" y="-194.2" text-anchor="middle" font-family="'Times-Roman',serif" font-size="14" fill="#000000">private</text></g><g class="relation" style="opacity: 1;"><title>private-&gt;pubchain</title><path stroke="#000000" fill="none" d="M 459.20000000000005,-229.49 C 471.56999999999994,-206.77,487.28999999999996,-177.91,498.47,-157.4"></path><path class="solid" stroke="#000000" fill="#000000" d="M 501.54999999999995,-159.06 L 503.26,-148.61,495.4000000000001,-155.71 Z"></path><text x="497.1300000000001" y="-194.2" text-anchor="middle" font-family="'Times-Roman',serif" font-size="14" fill="#000000">public</text></g></g></g></svg>