<svg version="1.1" xmlns="http://www.w3.org/2000/svg" width="144.16pt" height="264.54pt" viewBox="0 0 144.16 264.54"><style type="text/css">.dashed {stroke-dasharray: 5,5} .dotted {stroke-dasharray: 1,5} .overlay {fill: none; pointer-events: all}</style><g><g transform="translate(4, 260.5400085449219)"><polygon stroke="#fffffe" stroke-opacity="0" fill="#ffffff" points="-4,4 -4,-260.54 140.16,-260.54 140.16,4"></polygon><g class="node"><title>nA</title><path stroke="#000000" fill="none" d="M 59.24,-36 L -0.08,-36,-0.08,0,59.24,0 Z"></path><text x="29.58" y="-13.8" text-anchor="middle" font-family="'Times-Roman',serif" font-size="14" fill="#000000">Bank A</text></g><g class="node"><title>nB</title><path stroke="#000000" fill="none" d="M 58.97,-256.54 L 0.19,-256.54,0.19,-220.54,58.97,-220.54 Z"></path><text x="29.58" y="-234.34" text-anchor="middle" font-family="'Times-Roman',serif" font-size="14" fill="#000000">Bank B</text></g><g class="node"><title>ccp</title><path stroke="#000000" fill="#00ff00" d="M 67.58,-128.27 m -39.44,0 a 39.44,39.44 0 1,0 78.88,0 a 39.44,39.44 0 1,0 -78.88,0"></path><text x="67.58" y="-124.07" text-anchor="middle" font-family="'Times-Roman',serif" font-size="14" fill="#000000">System</text></g><g class="node"><title>nC</title><path stroke="#000000" fill="none" d="M 135.97,-36 L 77.19,-36,77.19,0,135.97,0 Z"></path><text x="106.58" y="-13.8" text-anchor="middle" font-family="'Times-Roman',serif" font-size="14" fill="#000000">Bank C</text></g><g class="node"><title>nD</title><path stroke="#000000" fill="none" d="M 136.24,-256.54 L 76.92,-256.54,76.92,-220.54,136.24,-220.54 Z"></path><text x="106.58" y="-234.34" text-anchor="middle" font-family="'Times-Roman',serif" font-size="14" fill="#000000">Bank D</text></g><g class="relation" style="opacity: 1;"><title>nB-&gt;ccp</title><path stroke="#000000" fill="none" d="M 35.68,-220.15 C 39.92,-208.07,45.78,-191.37,51.33,-175.58"></path><path class="solid" stroke="#000000" fill="#000000" d="M 54.71,-176.51 L 54.72,-165.91,48.1,-174.19 Z"></path><text x="54.58" y="-189.94" text-anchor="middle" font-family="'Times-Roman',serif" font-size="14" fill="#000000">10</text></g><g class="relation" style="opacity: 1;"><title>nD-&gt;ccp</title><path stroke="#000000" fill="none" d="M 100.31,-220.15 C 95.96,-208.07,89.95,-191.37,84.26,-175.58"></path><path class="solid" stroke="#000000" fill="#000000" d="M 87.46,-174.14 L 80.78,-165.91,80.87,-176.51 Z"></path><text x="98.08" y="-189.94" text-anchor="middle" font-family="'Times-Roman',serif" font-size="14" fill="#000000">5</text></g><g class="relation" style="opacity: 1;"><title>ccp-&gt;nA</title><path stroke="#000000" fill="none" d="M 54.82,-90.92 C 49.63,-76.13,43.74,-59.36,38.96,-45.73"></path><path class="solid" stroke="#000000" fill="#000000" d="M 42.16,-44.28 L 35.55,-36.01,35.56,-46.6 Z"></path><text x="54.58" y="-58.2" text-anchor="middle" font-family="'Times-Roman',serif" font-size="14" fill="#000000">13</text></g><g class="relation" style="opacity: 1;"><title>ccp-&gt;nC</title><path stroke="#000000" fill="none" d="M 80.67,-90.92 C 86,-76.13,92.04,-59.36,96.95,-45.73"></path><path class="solid" stroke="#000000" fill="#000000" d="M 100.36,-46.6 L 100.45,-36.01,93.77,-44.23 Z"></path><text x="98.08" y="-58.2" text-anchor="middle" font-family="'Times-Roman',serif" font-size="14" fill="#000000">2</text></g></g></g></svg>