<svg version="1.1" xmlns="http://www.w3.org/2000/svg" width="481.9pt" height="121.6pt" viewBox="0 0 481.9 121.6"><style type="text/css">.dashed {stroke-dasharray: 5,5} .dotted {stroke-dasharray: 1,5} .overlay {fill: none; pointer-events: all}</style><g><g transform="translate(4, 117.5999984741211)"><polygon stroke="#fffffe" stroke-opacity="0" fill="#ffffff" points="-4,4 -4,-117.6 477.9,-117.6 477.9,4"></polygon><g class="node"><title>edge</title></g><g class="node"><title>h01</title><path stroke="#000000" fill="none" d="M 31.95,-95.6 m -31.9,0 a 31.9,18 0 1,0 63.8,0 a 31.9,18 0 1,0 -63.8,0"></path><text x="31.95" y="-91.4" text-anchor="middle" font-family="'Times-Roman',serif" font-size="14" fill="#000000">h(01)</text></g><g class="node"><title>h02</title><path stroke="#000000" fill="none" d="M 113.95,-95.6 m -31.9,0 a 31.9,18 0 1,0 63.8,0 a 31.9,18 0 1,0 -63.8,0"></path><text x="113.95" y="-91.4" text-anchor="middle" font-family="'Times-Roman',serif" font-size="14" fill="#000000">h(02)</text></g><g class="node"><title>h03</title><path stroke="#000000" fill="none" d="M 195.95,-95.6 m -31.9,0 a 31.9,18 0 1,0 63.8,0 a 31.9,18 0 1,0 -63.8,0"></path><text x="195.95" y="-91.4" text-anchor="middle" font-family="'Times-Roman',serif" font-size="14" fill="#000000">h(03)</text></g><g class="node"><title>h04</title><path stroke="#000000" fill="none" d="M 277.95,-95.6 m -31.9,0 a 31.9,18 0 1,0 63.8,0 a 31.9,18 0 1,0 -63.8,0"></path><text x="277.95" y="-91.4" text-anchor="middle" font-family="'Times-Roman',serif" font-size="14" fill="#000000">h(04)</text></g><g class="node"><title>h05</title><path stroke="#000000" fill="none" d="M 359.95,-95.6 m -31.9,0 a 31.9,18 0 1,0 63.8,0 a 31.9,18 0 1,0 -63.8,0"></path><text x="359.95" y="-91.4" text-anchor="middle" font-family="'Times-Roman',serif" font-size="14" fill="#000000">h(05)</text></g><g class="node"><title>h06</title><path stroke="#000000" fill="none" d="M 441.95,-95.6 m -31.9,0 a 31.9,18 0 1,0 63.8,0 a 31.9,18 0 1,0 -63.8,0"></path><text x="441.95" y="-91.4" text-anchor="middle" font-family="'Times-Roman',serif" font-size="14" fill="#000000">h(06)</text></g><g class="node"><title>01</title><path stroke="#000000" fill="none" d="M 56.9,-41.4 L 7.01,-41.4,7.01,-0.2,56.9,-0.2 Z"></path><text x="31.95" y="-25" text-anchor="middle" font-family="'Times-Roman',serif" font-size="14" fill="#000000">Block</text><text x="31.95" y="-8.2" text-anchor="middle" font-family="'Times-Roman',serif" font-size="14" fill="#000000">01</text></g><g class="node"><title>02</title><path stroke="#000000" fill="none" d="M 138.9,-41.4 L 89.01,-41.4,89.01,-0.2,138.9,-0.2 Z"></path><text x="113.95" y="-25" text-anchor="middle" font-family="'Times-Roman',serif" font-size="14" fill="#000000">Block</text><text x="113.95" y="-8.2" text-anchor="middle" font-family="'Times-Roman',serif" font-size="14" fill="#000000">02</text></g><g class="node"><title>03</title><path stroke="#000000" fill="none" d="M 220.9,-41.4 L 171.01,-41.4,171.01,-0.2,220.9,-0.2 Z"></path><text x="195.95" y="-25" text-anchor="middle" font-family="'Times-Roman',serif" font-size="14" fill="#000000">Block</text><text x="195.95" y="-8.2" text-anchor="middle" font-family="'Times-Roman',serif" font-size="14" fill="#000000">03</text></g><g class="node"><title>04</title><path stroke="#000000" fill="none" d="M 302.9,-41.4 L 253.01,-41.4,253.01,-0.2,302.9,-0.2 Z"></path><text x="277.95" y="-25" text-anchor="middle" font-family="'Times-Roman',serif" font-size="14" fill="#000000">Block</text><text x="277.95" y="-8.2" text-anchor="middle" font-family="'Times-Roman',serif" font-size="14" fill="#000000">04</text></g><g class="node"><title>05</title><path stroke="#000000" fill="none" d="M 384.9,-41.4 L 335.01,-41.4,335.01,-0.2,384.9,-0.2 Z"></path><text x="359.95" y="-25" text-anchor="middle" font-family="'Times-Roman',serif" font-size="14" fill="#000000">Block</text><text x="359.95" y="-8.2" text-anchor="middle" font-family="'Times-Roman',serif" font-size="14" fill="#000000">05</text></g><g class="node"><title>06</title><path stroke="#000000" fill="none" d="M 466.9,-41.4 L 417.01,-41.4,417.01,-0.2,466.9,-0.2 Z"></path><text x="441.95" y="-25" text-anchor="middle" font-family="'Times-Roman',serif" font-size="14" fill="#000000">Block</text><text x="441.95" y="-8.2" text-anchor="middle" font-family="'Times-Roman',serif" font-size="14" fill="#000000">06</text></g><g class="relation" style="opacity: 1;"><title>01-&gt;h01</title><path stroke="#000000" fill="none" d="M 31.95,-41.69 C 31.95,-49.51,31.95,-58.61,31.95,-67.04"></path><path class="solid" stroke="#000000" fill="#000000" d="M 28.45,-67.21 L 31.95,-77.21,35.45,-67.21 Z"></path></g><g class="relation" style="opacity: 1;"><title>02-&gt;h02</title><path stroke="#000000" fill="none" d="M 113.95,-41.69 C 113.95,-49.51,113.95,-58.61,113.95,-67.04"></path><path class="solid" stroke="#000000" fill="#000000" d="M 110.45,-67.21 L 113.95,-77.21,117.45,-67.21 Z"></path></g><g class="relation" style="opacity: 1;"><title>03-&gt;h03</title><path stroke="#000000" fill="none" d="M 195.95,-41.69 C 195.95,-49.51,195.95,-58.61,195.95,-67.04"></path><path class="solid" stroke="#000000" fill="#000000" d="M 192.45,-67.21 L 195.95,-77.21,199.45,-67.21 Z"></path></g><g class="relation" style="opacity: 1;"><title>04-&gt;h04</title><path stroke="#000000" fill="none" d="M 277.95,-41.69 C 277.95,-49.51,277.95,-58.61,277.95,-67.04"></path><path class="solid" stroke="#000000" fill="#000000" d="M 274.45,-67.21 L 277.95,-77.21,281.45,-67.21 Z"></path></g><g class="relation" style="opacity: 1;"><title>05-&gt;h05</title><path stroke="#000000" fill="none" d="M 359.95,-41.69 C 359.95,-49.51,359.95,-58.61,359.95,-67.04"></path><path class="solid" stroke="#000000" fill="#000000" d="M 356.45,-67.21 L 359.95,-77.21,363.45,-67.21 Z"></path></g><g class="relation" style="opacity: 1;"><title>06-&gt;h06</title><path stroke="#000000" fill="none" d="M 441.95,-41.69 C 441.95,-49.51,441.95,-58.61,441.95,-67.04"></path><path class="solid" stroke="#000000" fill="#000000" d="M 438.45,-67.21 L 441.95,-77.21,445.45,-67.21 Z"></path></g></g></g></svg>