<svg version="1.1" xmlns="http://www.w3.org/2000/svg" width="500.9pt" height="360.43pt" viewBox="0 0 500.9 360.43"><style type="text/css">.dashed {stroke-dasharray: 5,5} .dotted {stroke-dasharray: 1,5} .overlay {fill: none; pointer-events: all}</style><g><g transform="translate(4, 356.42999267578125) scale(1,1)"><polygon stroke="#fffffe" stroke-opacity="0" fill="#ffffff" points="-4,4 -4,-356.43 496.9,-356.43 496.9,4"></polygon><g class="node"><title>edge</title></g><g class="node"><title>root</title><path stroke="#000000" fill="#00ff00" d="M 313.95,-323.02 m -79.44,0 a 79.44,29.33 0 1,0 158.88,0 a 79.44,29.33 0 1,0 -158.88,0"></path><text x="313.95" y="-327.22" text-anchor="middle" font-family="'Times-Roman',serif" font-size="14" fill="#000000">h(H1234,H5656)</text><text x="313.95" y="-310.42" text-anchor="middle" font-family="'Times-Roman',serif" font-size="14" fill="#000000">Merkle Root</text></g><g class="node"><title>h14</title><path stroke="#000000" fill="#00ff00" d="M 245.95,-239.6 m -57.93,0 a 57.93,18 0 1,0 115.86,0 a 57.93,18 0 1,0 -115.86,0"></path><text x="245.95" y="-235.4" text-anchor="middle" font-family="'Times-Roman',serif" font-size="14" fill="#000000">h(H12,H34)</text></g><g class="relation" style="opacity: 1;"><title>h14-&gt;root</title><path stroke="#000000" fill="none" d="M 260.04,-257.47 C 267.1,-265.92,275.93,-276.49,284.39,-286.62"></path><path class="solid" stroke="#000000" fill="#000000" d="M 281.95,-289.16 L 291.05,-294.59,287.32,-284.67 Z"></path></g><g class="node"><title>h58</title><path stroke="#000000" fill="#ffa500" d="M 381.95,-239.6 m -57.93,0 a 57.93,18 0 1,0 115.86,0 a 57.93,18 0 1,0 -115.86,0"></path><text x="381.95" y="-235.4" text-anchor="middle" font-family="'Times-Roman',serif" font-size="14" fill="#000000">h(H56,H56)</text></g><g class="relation" style="opacity: 1;"><title>h58-&gt;root</title><path stroke="#000000" fill="none" d="M 367.86,-257.47 C 360.8,-265.92,351.97,-276.49,343.52,-286.62"></path><path class="solid" stroke="#000000" fill="#000000" d="M 340.58,-284.67 L 336.86,-294.59,345.95,-289.16 Z"></path></g><g class="node"><title>h12</title><path stroke="#000000" fill="#ffa500" d="M 109.95,-167.6 m -60.26,0 a 60.26,18 0 1,0 120.52,0 a 60.26,18 0 1,0 -120.52,0"></path><text x="109.95" y="-163.4" text-anchor="middle" font-family="'Times-Roman',serif" font-size="14" fill="#000000">h(H01, H02)</text></g><g class="relation" style="opacity: 1;"><title>h12-&gt;h14</title><path stroke="#000000" fill="none" d="M 138.79,-183.45 C 158.99,-193.84,186.17,-207.83,208.11,-219.12"></path><path class="solid" stroke="#000000" fill="#000000" d="M 206.66,-222.31 L 217.15,-223.78,209.86,-216.09 Z"></path></g><g class="node"><title>h34</title><path stroke="#000000" fill="#00ff00" d="M 245.95,-167.6 m -57.93,0 a 57.93,18 0 1,0 115.86,0 a 57.93,18 0 1,0 -115.86,0"></path><text x="245.95" y="-163.4" text-anchor="middle" font-family="'Times-Roman',serif" font-size="14" fill="#000000">h(H03,H04)</text></g><g class="relation" style="opacity: 1;"><title>h34-&gt;h14</title><path stroke="#000000" fill="none" d="M 245.95,-185.9 C 245.95,-193.62,245.95,-202.89,245.95,-211.49"></path><path class="solid" stroke="#000000" fill="#000000" d="M 242.45,-211.5 L 245.95,-221.5,249.45,-211.5 Z"></path></g><g class="node"><title>h56</title><path stroke="#000000" fill="none" d="M 381.95,-167.6 m -60.26,0 a 60.26,18 0 1,0 120.52,0 a 60.26,18 0 1,0 -120.52,0"></path><text x="381.95" y="-163.4" text-anchor="middle" font-family="'Times-Roman',serif" font-size="14" fill="#000000">h(H05, H06)</text></g><g class="relation" style="opacity: 1;"><title>h56-&gt;h58</title><path stroke="#000000" fill="none" d="M 376.07,-185.55 C 375.26,-193.25,375.01,-202.57,375.35,-211.24"></path><path class="solid" stroke="#000000" fill="#000000" d="M 371.86,-211.59 L 376.04,-221.32,378.85,-211.11 Z"></path><path stroke="#000000" fill="none" d="M 387.83,-185.55 C 388.65,-193.25,388.89,-202.57,388.56,-211.24"></path><path class="solid" stroke="#000000" fill="#000000" d="M 385.06,-211.11 L 387.86,-221.32,392.04,-211.59 Z"></path></g><g class="node"><title>h01</title><path stroke="#000000" fill="none" d="M 31.95,-95.6 m -31.9,0 a 31.9,18 0 1,0 63.8,0 a 31.9,18 0 1,0 -63.8,0"></path><text x="31.95" y="-91.4" text-anchor="middle" font-family="'Times-Roman',serif" font-size="14" fill="#000000">h(01)</text></g><g class="relation" style="opacity: 1;"><title>h01-&gt;h12</title><path stroke="#000000" fill="none" d="M 48.49,-111.45 C 58.81,-120.71,72.31,-132.82,84.03,-143.34"></path><path class="solid" stroke="#000000" fill="#000000" d="M 82.02,-146.24 L 91.8,-150.31,86.69,-141.03 Z"></path></g><g class="node"><title>h02</title><path stroke="#000000" fill="none" d="M 113.95,-95.6 m -31.9,0 a 31.9,18 0 1,0 63.8,0 a 31.9,18 0 1,0 -63.8,0"></path><text x="113.95" y="-91.4" text-anchor="middle" font-family="'Times-Roman',serif" font-size="14" fill="#000000">h(02)</text></g><g class="relation" style="opacity: 1;"><title>h02-&gt;h12</title><path stroke="#000000" fill="none" d="M 112.96,-113.9 C 112.52,-121.62,111.99,-130.89,111.5,-139.49"></path><path class="solid" stroke="#000000" fill="#000000" d="M 108.01,-139.31 L 110.93,-149.5,114.99,-139.71 Z"></path></g><g class="node"><title>h03</title><path stroke="#000000" fill="#00ff00" d="M 208.95,-95.6 m -31.9,0 a 31.9,18 0 1,0 63.8,0 a 31.9,18 0 1,0 -63.8,0"></path><text x="208.95" y="-91.4" text-anchor="middle" font-family="'Times-Roman',serif" font-size="14" fill="#000000">h(03)</text></g><g class="relation" style="opacity: 1;"><title>h03-&gt;h34</title><path stroke="#000000" fill="none" d="M 217.72,-113.19 C 222.03,-121.35,227.34,-131.38,232.17,-140.53"></path><path class="solid" stroke="#000000" fill="#000000" d="M 229.22,-142.44 L 236.99,-149.64,235.41,-139.17 Z"></path></g><g class="node"><title>h04</title><path stroke="#000000" fill="#ffa500" d="M 290.95,-95.6 m -31.9,0 a 31.9,18 0 1,0 63.8,0 a 31.9,18 0 1,0 -63.8,0"></path><text x="290.95" y="-91.4" text-anchor="middle" font-family="'Times-Roman',serif" font-size="14" fill="#000000">h(04)</text></g><g class="relation" style="opacity: 1;"><title>h04-&gt;h34</title><path stroke="#000000" fill="none" d="M 280.51,-112.84 C 275.16,-121.16,268.52,-131.5,262.49,-140.87"></path><path class="solid" stroke="#000000" fill="#000000" d="M 259.42,-139.17 L 256.96,-149.48,265.31,-142.96 Z"></path></g><g class="node"><title>h05</title><path stroke="#000000" fill="none" d="M 378.95,-95.6 m -31.9,0 a 31.9,18 0 1,0 63.8,0 a 31.9,18 0 1,0 -63.8,0"></path><text x="378.95" y="-91.4" text-anchor="middle" font-family="'Times-Roman',serif" font-size="14" fill="#000000">h(05)</text></g><g class="relation" style="opacity: 1;"><title>h05-&gt;h56</title><path stroke="#000000" fill="none" d="M 379.69,-113.9 C 380.02,-121.62,380.42,-130.89,380.79,-139.49"></path><path class="solid" stroke="#000000" fill="#000000" d="M 377.29,-139.65 L 381.22,-149.5,384.29,-139.35 Z"></path></g><g class="node"><title>h06</title><path stroke="#000000" fill="none" d="M 460.95,-95.6 m -31.9,0 a 31.9,18 0 1,0 63.8,0 a 31.9,18 0 1,0 -63.8,0"></path><text x="460.95" y="-91.4" text-anchor="middle" font-family="'Times-Roman',serif" font-size="14" fill="#000000">h(06)</text></g><g class="relation" style="opacity: 1;"><title>h06-&gt;h56</title><path stroke="#000000" fill="none" d="M 444.58,-111.1 C 433.98,-120.5,419.94,-132.94,407.85,-143.66"></path><path class="solid" stroke="#000000" fill="#000000" d="M 405.4,-141.15 L 400.23,-150.4,410.04,-146.39 Z"></path></g><g class="node"><title>01</title><path stroke="#000000" fill="none" d="M 56.9,-41.4 L 7.01,-41.4,7.01,-0.2,56.9,-0.2 Z"></path><text x="31.95" y="-25" text-anchor="middle" font-family="'Times-Roman',serif" font-size="14" fill="#000000">Block</text><text x="31.95" y="-8.2" text-anchor="middle" font-family="'Times-Roman',serif" font-size="14" fill="#000000">01</text></g><g class="relation" style="opacity: 1;"><title>01-&gt;h01</title><path stroke="#000000" fill="none" d="M 31.95,-41.69 C 31.95,-49.51,31.95,-58.61,31.95,-67.04"></path><path class="solid" stroke="#000000" fill="#000000" d="M 28.45,-67.21 L 31.95,-77.21,35.45,-67.21 Z"></path></g><g class="node"><title>02</title><path stroke="#000000" fill="none" d="M 138.9,-41.4 L 89.01,-41.4,89.01,-0.2,138.9,-0.2 Z"></path><text x="113.95" y="-25" text-anchor="middle" font-family="'Times-Roman',serif" font-size="14" fill="#000000">Block</text><text x="113.95" y="-8.2" text-anchor="middle" font-family="'Times-Roman',serif" font-size="14" fill="#000000">02</text></g><g class="relation" style="opacity: 1;"><title>02-&gt;h02</title><path stroke="#000000" fill="none" d="M 113.95,-41.69 C 113.95,-49.51,113.95,-58.61,113.95,-67.04"></path><path class="solid" stroke="#000000" fill="#000000" d="M 110.45,-67.21 L 113.95,-77.21,117.45,-67.21 Z"></path></g><g class="node"><title>03</title><path stroke="#000000" fill="#ff0000" d="M 233.9,-41.4 L 184.01,-41.4,184.01,-0.2,233.9,-0.2 Z"></path><text x="208.95" y="-25" text-anchor="middle" font-family="'Times-Roman',serif" font-size="14" fill="#000000">Block</text><text x="208.95" y="-8.2" text-anchor="middle" font-family="'Times-Roman',serif" font-size="14" fill="#000000">03</text></g><g class="relation" style="opacity: 1;"><title>03-&gt;h03</title><path stroke="#000000" fill="none" d="M 208.95,-41.69 C 208.95,-49.51,208.95,-58.61,208.95,-67.04"></path><path class="solid" stroke="#000000" fill="#000000" d="M 205.45,-67.21 L 208.95,-77.21,212.45,-67.21 Z"></path></g><g class="node"><title>04</title><path stroke="#000000" fill="none" d="M 315.9,-41.4 L 266.01,-41.4,266.01,-0.2,315.9,-0.2 Z"></path><text x="290.95" y="-25" text-anchor="middle" font-family="'Times-Roman',serif" font-size="14" fill="#000000">Block</text><text x="290.95" y="-8.2" text-anchor="middle" font-family="'Times-Roman',serif" font-size="14" fill="#000000">04</text></g><g class="relation" style="opacity: 1;"><title>04-&gt;h04</title><path stroke="#000000" fill="none" d="M 290.95,-41.69 C 290.95,-49.51,290.95,-58.61,290.95,-67.04"></path><path class="solid" stroke="#000000" fill="#000000" d="M 287.45,-67.21 L 290.95,-77.21,294.45,-67.21 Z"></path></g><g class="node"><title>05</title><path stroke="#000000" fill="none" d="M 403.9,-41.4 L 354.01,-41.4,354.01,-0.2,403.9,-0.2 Z"></path><text x="378.95" y="-25" text-anchor="middle" font-family="'Times-Roman',serif" font-size="14" fill="#000000">Block</text><text x="378.95" y="-8.2" text-anchor="middle" font-family="'Times-Roman',serif" font-size="14" fill="#000000">05</text></g><g class="relation" style="opacity: 1;"><title>05-&gt;h05</title><path stroke="#000000" fill="none" d="M 378.95,-41.69 C 378.95,-49.51,378.95,-58.61,378.95,-67.04"></path><path class="solid" stroke="#000000" fill="#000000" d="M 375.45,-67.21 L 378.95,-77.21,382.45,-67.21 Z"></path></g><g class="node"><title>06</title><path stroke="#000000" fill="none" d="M 485.9,-41.4 L 436.01,-41.4,436.01,-0.2,485.9,-0.2 Z"></path><text x="460.95" y="-25" text-anchor="middle" font-family="'Times-Roman',serif" font-size="14" fill="#000000">Block</text><text x="460.95" y="-8.2" text-anchor="middle" font-family="'Times-Roman',serif" font-size="14" fill="#000000">06</text></g><g class="relation" style="opacity: 1;"><title>06-&gt;h06</title><path stroke="#000000" fill="none" d="M 460.95,-41.69 C 460.95,-49.51,460.95,-58.61,460.95,-67.04"></path><path class="solid" stroke="#000000" fill="#000000" d="M 457.45,-67.21 L 460.95,-77.21,464.45,-67.21 Z"></path></g></g></g></svg>