<svg version="1.1" xmlns="http://www.w3.org/2000/svg" width="171.19pt" height="310.4pt" viewBox="0 0 171.19 310.4"><style type="text/css">.dashed {stroke-dasharray: 5,5} .dotted {stroke-dasharray: 1,5} .overlay {fill: none; pointer-events: all}</style><g><g transform="translate(4, 306.3999938964844)"><polygon stroke="#fffffe" stroke-opacity="0" fill="#ffffff" points="-4,4 -4,-306.4 167.19,-306.4 167.19,4"></polygon><g class="node"><title>nC</title><path stroke="#000000" fill="none" d="M 58.58,-213.6 L -0.2,-213.6,-0.2,-177.6,58.58,-177.6 Z"></path><text x="29.19" y="-191.4" text-anchor="middle" font-family="'Times-Roman',serif" font-size="14" fill="#000000">Bank C</text></g><g class="node"><title>nB</title><path stroke="#000000" fill="none" d="M 123.58,-124.8 L 64.8,-124.8,64.8,-88.8,123.58,-88.8 Z"></path><text x="94.19" y="-102.6" text-anchor="middle" font-family="'Times-Roman',serif" font-size="14" fill="#000000">Bank B</text></g><g class="node"><title>nA</title><path stroke="#000000" fill="none" d="M 148.85,-302.4 L 89.54,-302.4,89.54,-266.4,148.85,-266.4 Z"></path><text x="119.19" y="-280.2" text-anchor="middle" font-family="'Times-Roman',serif" font-size="14" fill="#000000">Bank A</text></g><g class="node"><title>nD</title><path stroke="#000000" fill="none" d="M 123.85,-36 L 64.54,-36,64.54,0,123.85,0 Z"></path><text x="94.19" y="-13.8" text-anchor="middle" font-family="'Times-Roman',serif" font-size="14" fill="#000000">Bank D</text></g><g class="relation" style="opacity: 1;"><title>nA-&gt;nB</title><path stroke="#000000" fill="none" d="M 116.36,-266.21 C 114.07,-252.09,110.8,-231.57,108.19,-213.6,104.33,-186.93,100.34,-156.42,97.61,-135.04"></path><path class="solid" stroke="#000000" fill="#000000" d="M 101.07,-134.52 L 96.34,-125.04,94.13,-135.4 Z"></path><text x="115.19" y="-191.4" text-anchor="middle" font-family="'Times-Roman',serif" font-size="14" fill="#000000">85</text></g><g class="relation" style="opacity: 1;"><title>nA-&gt;nC</title><path stroke="#000000" fill="none" d="M 89.61,-270.1 C 79.17,-264.44,67.88,-257.11,59.19,-248.4,51.97,-241.16,45.87,-231.83,41.09,-223.09"></path><path class="solid" stroke="#000000" fill="#000000" d="M 44.1,-221.28 L 36.44,-213.96,37.87,-224.46 Z"></path><text x="69.69" y="-235.8" text-anchor="middle" font-family="'Times-Roman',serif" font-size="14" fill="#000000">100</text></g><g class="relation" style="opacity: 1;"><title>nB-&gt;nA</title><path stroke="#000000" fill="none" d="M 104.53,-124.84 C 107.62,-130.43,110.81,-136.75,113.19,-142.8,130.5,-186.75,129.2,-201.33,125.19,-248.4,124.97,-250.98,124.67,-253.66,124.3,-256.33"></path><path class="solid" stroke="#000000" fill="#000000" d="M 120.82,-255.96 L 122.71,-266.38,127.73,-257.06 Z"></path><text x="137.69" y="-191.4" text-anchor="middle" font-family="'Times-Roman',serif" font-size="14" fill="#000000">140</text></g><g class="relation" style="opacity: 1;"><title>nB-&gt;nD</title><path stroke="#000000" fill="none" d="M 94.19,-88.65 C 94.19,-76.52,94.19,-60.02,94.19,-46.12"></path><path class="solid" stroke="#000000" fill="#000000" d="M 97.69,-46.11 L 94.19,-36.11,90.69,-46.11 Z"></path><text x="101.19" y="-58.2" text-anchor="middle" font-family="'Times-Roman',serif" font-size="14" fill="#000000">10</text></g><g class="relation" style="opacity: 1;"><title>nC-&gt;nB</title><path stroke="#000000" fill="none" d="M 41.29,-177.16 C 48.41,-167.03,57.66,-154.08,66.19,-142.8,68.61,-139.61,71.18,-136.29,73.75,-133.02"></path><path class="solid" stroke="#000000" fill="#000000" d="M 76.56,-135.11 L 80.05,-125.1,71.08,-130.75 Z"></path><text x="73.19" y="-147" text-anchor="middle" font-family="'Times-Roman',serif" font-size="14" fill="#000000">55</text></g><g class="relation" style="opacity: 1;"><title>nC-&gt;nD</title><path stroke="#000000" fill="none" d="M 28.65,-177.45 C 28.55,-155.95,30.35,-118.34,42.19,-88.8,48.79,-72.35,60.26,-56.32,70.75,-43.78"></path><path class="solid" stroke="#000000" fill="#000000" d="M 73.53,-45.91 L 77.44,-36.07,68.24,-41.32 Z"></path><text x="49.19" y="-102.6" text-anchor="middle" font-family="'Times-Roman',serif" font-size="14" fill="#000000">43</text></g><g class="relation" style="opacity: 1;"><title>nD-&gt;nA</title><path stroke="#000000" fill="none" d="M 105.28,-36.14 C 113.74,-49.9,125.1,-69.95,132.19,-88.8,146.45,-126.66,147.72,-137.39,152.19,-177.6,155.73,-209.4,152.77,-219.43,139.19,-248.4,137.8,-251.38,136.24,-254.44,134.63,-257.46"></path><path class="solid" stroke="#000000" fill="#000000" d="M 131.54,-255.81 L 129.73,-266.25,137.66,-259.22 Z"></path><text x="156.19" y="-147" text-anchor="middle" font-family="'Times-Roman',serif" font-size="14" fill="#000000">58</text></g></g></g></svg>