<svg version="1.1" xmlns="http://www.w3.org/2000/svg" width="276pt" height="352.8pt" viewBox="0 0 276 352.8"><style type="text/css">.dashed {stroke-dasharray: 5,5} .dotted {stroke-dasharray: 1,5} .overlay {fill: none; pointer-events: all}</style><g><g transform="translate(4, 348.79998779296875)"><polygon stroke="#fffffe" stroke-opacity="0" fill="#ffffff" points="-4,4 -4,-348.8 272,-348.8 272,4"></polygon><g class="subgraph"><title>cluster_0</title><path stroke="#d3d3d3" fill="#d3d3d3" d="M 8,-8 L 8,-228.8,130,-228.8,130,-8 Z"></path><text x="69" y="-212.2" text-anchor="middle" font-family="'Times-Roman',serif" font-size="14" fill="#000000">main</text></g><g class="node"><title>A0816</title><path stroke="#ffffff" fill="#ffffff" d="M 121.94,-196 L 16.06,-196,16.06,-160,121.94,-160 Z"></path><text x="69" y="-173.8" text-anchor="middle" font-family="'Times-Roman',serif" font-size="14" fill="#000000">Block #0816.v1</text></g><g class="node"><title>A0817</title><path stroke="#ffffff" fill="#ffffff" d="M 112.94,-124 L 25.06,-124,25.06,-88,112.94,-88 Z"></path><text x="69" y="-101.8" text-anchor="middle" font-family="'Times-Roman',serif" font-size="14" fill="#000000">Block #0817</text></g><g class="relation" style="opacity: 1;"><title>A0816-&gt;A0817</title><path stroke="#000000" fill="none" d="M 69,-159.7 C 69,-151.98,69,-142.71,69,-134.11"></path><path class="solid" stroke="#000000" fill="#000000" d="M 72.5,-134.1 L 69,-124.1,65.5,-134.1 Z"></path></g><g class="node"><title>A0818</title><path stroke="#ffffff" fill="#ffffff" d="M 112.94,-52 L 25.06,-52,25.06,-16,112.94,-16 Z"></path><text x="69" y="-29.8" text-anchor="middle" font-family="'Times-Roman',serif" font-size="14" fill="#000000">Block #0818</text></g><g class="relation" style="opacity: 1;"><title>A0817-&gt;A0818</title><path stroke="#000000" fill="none" d="M 69,-87.7 C 69,-79.98,69,-70.71,69,-62.11"></path><path class="solid" stroke="#000000" fill="#000000" d="M 72.5,-62.1 L 69,-52.1,65.5,-62.1 Z"></path></g><g class="subgraph"><title>cluster_1</title><path stroke="#ffffff" fill="#ffffff" d="M 138,-80 L 138,-228.8,260,-228.8,260,-80 Z"></path><text x="199" y="-212.2" text-anchor="middle" font-family="'Times-Roman',serif" font-size="14" fill="#000000">stale</text></g><g class="node"><title>B0816</title><path stroke="#000000" fill="#d3d3d3" d="M 251.94,-196 L 146.06,-196,146.06,-160,251.94,-160 Z"></path><text x="199" y="-173.8" text-anchor="middle" font-family="'Times-Roman',serif" font-size="14" fill="#000000">Block #0816.v2</text></g><g class="node"><title>.....</title><path stroke="#000000" fill="#d3d3d3" d="M 226,-124 L 172,-124,172,-88,226,-88 Z"></path><text x="199" y="-101.8" text-anchor="middle" font-family="'Times-Roman',serif" font-size="14" fill="#000000">.....</text></g><g class="relation" style="opacity: 1;"><title>B0816-&gt;.....</title><path stroke="#000000" fill="none" d="M 199,-159.7 C 199,-151.98,199,-142.71,199,-134.11"></path><path class="solid" stroke="#000000" fill="#000000" d="M 202.5,-134.1 L 199,-124.1,195.5,-134.1 Z"></path></g><g class="node"><title>start</title><path stroke="#000000" fill="none" d="M 177.94,-272.8 L 90.06,-272.8,90.06,-236.8,177.94,-236.8 Z"></path><text x="134" y="-250.6" text-anchor="middle" font-family="'Times-Roman',serif" font-size="14" fill="#000000">Block #0815</text></g><g class="relation" style="opacity: 1;"><title>start-&gt;A0816</title><path stroke="#000000" fill="none" d="M 118.92,-236.45 C 110.56,-226.82,100,-214.67,90.75,-204.03"></path><path class="solid" stroke="#000000" fill="#000000" d="M 93.2,-201.51 L 83.99,-196.25,87.91,-206.1 Z"></path></g><g class="relation" style="opacity: 1;"><title>start-&gt;B0816</title><path stroke="#000000" fill="none" d="M 149.08,-236.45 C 157.44,-226.82,168,-214.67,177.25,-204.03"></path><path class="solid" stroke="#000000" fill="#000000" d="M 180.09,-206.1 L 184.01,-196.25,174.8,-201.51 Z"></path></g><g class="node"><title>0814</title><path stroke="#000000" fill="none" d="M 177.94,-344.8 L 90.06,-344.8,90.06,-308.8,177.94,-308.8 Z"></path><text x="134" y="-322.6" text-anchor="middle" font-family="'Times-Roman',serif" font-size="14" fill="#000000">Block #0814</text></g><g class="relation" style="opacity: 1;"><title>0814-&gt;start</title><path stroke="#000000" fill="none" d="M 134,-308.5 C 134,-300.78,134,-291.51,134,-282.91"></path><path class="solid" stroke="#000000" fill="#000000" d="M 137.5,-282.9 L 134,-272.9,130.5,-282.9 Z"></path></g></g></g></svg>