<svg version="1.1" xmlns="http://www.w3.org/2000/svg" width="522pt" height="424.8pt" viewBox="0 0 522 424.8"><style type="text/css">.dashed {stroke-dasharray: 5,5} .dotted {stroke-dasharray: 1,5} .overlay {fill: none; pointer-events: all}</style><g><g transform="translate(4, 420.79998779296875)"><polygon stroke="#fffffe" stroke-opacity="0" fill="#ffffff" points="-4,4 -4,-420.8 518,-420.8 518,4"></polygon><g class="subgraph"><title>cluster_0</title><path stroke="#d3d3d3" fill="#d3d3d3" d="M 8,-80 L 8,-300.8,376,-300.8,376,-80 Z"></path><text x="192" y="-284.2" text-anchor="middle" font-family="'Times-Roman',serif" font-size="14" fill="#000000">main</text></g><g class="subgraph"><title>cluster_1</title><path stroke="#ffffff" fill="#ffffff" d="M 384,-8 L 384,-300.8,506,-300.8,506,-8 Z"></path><text x="445" y="-284.2" text-anchor="middle" font-family="'Times-Roman',serif" font-size="14" fill="#000000">stale</text></g><g class="node"><title>A0816v1</title><path stroke="#ffffff" fill="#ffffff" d="M 367.94,-268 L 262.06,-268,262.06,-232,367.94,-232 Z"></path><text x="315" y="-245.8" text-anchor="middle" font-family="'Times-Roman',serif" font-size="14" fill="#000000">Block #0816.v1</text></g><g class="node"><title>A0817v1</title><path stroke="#ffffff" fill="#ffffff" d="M 358.94,-196 L 271.06,-196,271.06,-160,358.94,-160 Z"></path><text x="315" y="-173.8" text-anchor="middle" font-family="'Times-Roman',serif" font-size="14" fill="#000000">Block #0817</text></g><g class="node"><title>A0818v1</title><path stroke="#ffffff" fill="#ffffff" d="M 358.94,-124 L 271.06,-124,271.06,-88,358.94,-88 Z"></path><text x="315" y="-101.8" text-anchor="middle" font-family="'Times-Roman',serif" font-size="14" fill="#000000">Block #0818</text></g><g class="node"><title>A0816v2</title><path stroke="#ff0000" fill="none" d="M 244.94,-268 L 139.06,-268,139.06,-232,244.94,-232 Z" class="dashed"></path><text x="192" y="-245.8" text-anchor="middle" font-family="'Times-Roman',serif" font-size="14" fill="#000000">Block #0816.v2</text></g><g class="node"><title>A0816v3</title><path stroke="#ff0000" fill="none" d="M 121.94,-268 L 16.06,-268,16.06,-232,121.94,-232 Z" class="dashed"></path><text x="69" y="-245.8" text-anchor="middle" font-family="'Times-Roman',serif" font-size="14" fill="#000000">Block #0816.v3</text></g><g class="node"><title>B0816</title><path stroke="#000000" fill="#d3d3d3" d="M 497.94,-268 L 392.06,-268,392.06,-232,497.94,-232 Z"></path><text x="445" y="-245.8" text-anchor="middle" font-family="'Times-Roman',serif" font-size="14" fill="#000000">Block #0816.v4</text></g><g class="node"><title>B0817</title><path stroke="#000000" fill="#d3d3d3" d="M 497.94,-196 L 392.06,-196,392.06,-160,497.94,-160 Z"></path><text x="445" y="-173.8" text-anchor="middle" font-family="'Times-Roman',serif" font-size="14" fill="#000000">Block #0817.v2</text></g><g class="node"><title>B0818</title><path stroke="#000000" fill="#d3d3d3" d="M 497.94,-124 L 392.06,-124,392.06,-88,497.94,-88 Z"></path><text x="445" y="-101.8" text-anchor="middle" font-family="'Times-Roman',serif" font-size="14" fill="#000000">Block #0818.v2</text></g><g class="node"><title>B0819</title><path stroke="#000000" fill="#d3d3d3" d="M 488.94,-52 L 401.06,-52,401.06,-16,488.94,-16 Z"></path><text x="445" y="-29.8" text-anchor="middle" font-family="'Times-Roman',serif" font-size="14" fill="#000000">Block #0819</text></g><g class="node"><title>start</title><text x="253" y="-322.6" text-anchor="middle" font-family="'Times-Roman',serif" font-size="14" fill="#000000">Block #0815</text><path stroke="#000000" fill="none" d="M 296.94,-344.8 L 209.06,-344.8,209.06,-308.8,296.94,-308.8 Z"></path></g><g class="node"><title>0814</title><path stroke="#000000" fill="none" d="M 296.94,-416.8 L 209.06,-416.8,209.06,-380.8,296.94,-380.8 Z"></path><text x="253" y="-394.6" text-anchor="middle" font-family="'Times-Roman',serif" font-size="14" fill="#000000">Block #0814</text></g><g class="relation" style="opacity: 1;"><title>A0816v1-&gt;A0817v1</title><path stroke="#000000" fill="none" d="M 315,-231.7 C 315,-223.98,315,-214.71,315,-206.11"></path><path class="solid" stroke="#000000" fill="#000000" d="M 318.5,-206.1 L 315,-196.1,311.5,-206.1 Z"></path></g><g class="relation" style="opacity: 1;"><title>A0817v1-&gt;A0818v1</title><path stroke="#000000" fill="none" d="M 315,-159.7 C 315,-151.98,315,-142.71,315,-134.11"></path><path class="solid" stroke="#000000" fill="#000000" d="M 318.5,-134.1 L 315,-124.1,311.5,-134.1 Z"></path></g><g class="relation" style="opacity: 1;"><title>B0816-&gt;B0817</title><path stroke="#000000" fill="none" d="M 445,-231.7 C 445,-223.98,445,-214.71,445,-206.11"></path><path class="solid" stroke="#000000" fill="#000000" d="M 448.5,-206.1 L 445,-196.1,441.5,-206.1 Z"></path></g><g class="relation" style="opacity: 1;"><title>B0817-&gt;B0818</title><path stroke="#000000" fill="none" d="M 445,-159.7 C 445,-151.98,445,-142.71,445,-134.11"></path><path class="solid" stroke="#000000" fill="#000000" d="M 448.5,-134.1 L 445,-124.1,441.5,-134.1 Z"></path></g><g class="relation" style="opacity: 1;"><title>B0818-&gt;B0819</title><path stroke="#000000" fill="none" d="M 445,-87.7 C 445,-79.98,445,-70.71,445,-62.11"></path><path class="solid" stroke="#000000" fill="#000000" d="M 448.5,-62.1 L 445,-52.1,441.5,-62.1 Z"></path></g><g class="relation" style="opacity: 1;"><title>start-&gt;A0816v1</title><path stroke="#000000" fill="none" d="M 267.38,-308.45 C 275.36,-298.82,285.43,-286.67,294.25,-276.03"></path><path class="solid" stroke="#000000" fill="#000000" d="M 297.01,-278.19 L 300.7,-268.25,291.62,-273.72 Z"></path></g><g class="relation" style="opacity: 1;"><title>start-&gt;A0816v2</title><path stroke="#000000" fill="none" d="M 238.85,-308.45 C 231,-298.82,221.09,-286.67,212.41,-276.03" class="dashed"></path><path class="solid" stroke="#000000" fill="#000000" d="M 215.1,-273.79 L 206.07,-268.25,209.68,-278.22 Z"></path></g><g class="relation" style="opacity: 1;"><title>start-&gt;A0816v3</title><path stroke="#000000" fill="none" d="M 208.96,-322.06 C 184.76,-318.75,154.71,-312.51,130,-300.8,116.61,-294.45,103.63,-284.56,93.1,-275.25" class="dashed"></path><path class="solid" stroke="#000000" fill="#000000" d="M 95.3,-272.51 L 85.57,-268.32,90.56,-277.67 Z"></path></g><g class="relation" style="opacity: 1;"><title>start-&gt;B0816</title><path stroke="#000000" fill="none" d="M 297.13,-322.14 C 322.28,-318.84,353.89,-312.59,380,-300.8,394.28,-294.35,408.32,-284.22,419.67,-274.78"></path><path class="solid" stroke="#000000" fill="#000000" d="M 422.14,-277.27 L 427.43,-268.08,417.57,-271.97 Z"></path></g><g class="relation" style="opacity: 1;"><title>0814-&gt;start</title><path stroke="#000000" fill="none" d="M 253,-380.5 C 253,-372.78,253,-363.51,253,-354.91"></path><path class="solid" stroke="#000000" fill="#000000" d="M 256.5,-354.9 L 253,-344.9,249.5,-354.9 Z"></path></g></g></g></svg>